<svg xmlns="http://www.w3.org/2000/svg" viewBox="0 0 14.24 12.95"><g id="Ebene_2" data-name="Ebene 2"><g id="Layer_1" data-name="Layer 1"><path d="M6.55,13A6.48,6.48,0,0,1,.4,8.73,6,6,0,0,1,.55,4.09,5.58,5.58,0,0,1,3.8,1.14,5.12,5.12,0,0,1,9.71,3.07,3.87,3.87,0,0,1,10,6.38,3.82,3.82,0,0,1,7.66,8.77,3.51,3.51,0,0,1,5.15,8.7a1.37,1.37,0,0,1,1-2.54.79.79,0,0,0,.56,0,1.1,1.1,0,0,0,.71-.7,1.16,1.16,0,0,0-.06-1,2.39,2.39,0,0,0-2.7-.8A2.81,2.81,0,0,0,3,5.25,3.17,3.17,0,0,0,3,7.74,3.94,3.94,0,0,0,8.29,9.87a5.1,5.1,0,0,0,3.07-3.38,4.61,4.61,0,0,0-1.11-4.24A1.37,1.37,0,0,1,12.35.49,7.34,7.34,0,0,1,14,7.17a7.89,7.89,0,0,1-4.73,5.26A7.67,7.67,0,0,1,6.55,13Z"/></g></g></svg>