<svg xmlns="http://www.w3.org/2000/svg" viewBox="0 0 16.57 13.74"><g id="Ebene_2" data-name="Ebene 2"><g id="Layer_1" data-name="Layer 1"><path d="M2.33,2.21h-1A1.28,1.28,0,0,0,0,3.49V5.05A3.5,3.5,0,0,0,2.62,8.56a.31.31,0,0,1,.13.5,1.15,1.15,0,0,0-.53.94h0c0,2.22,2.07,3.75,4.29,3.74a1,1,0,0,0,1-1V7.37A5.16,5.16,0,0,0,2.33,2.21Z"/><path d="M14.23,2.21h1.06a1.28,1.28,0,0,1,1.28,1.28V5.05a3.51,3.51,0,0,1-2.63,3.51.31.31,0,0,0-.13.5,1.15,1.15,0,0,1,.54.94h0c0,2.22-2.08,3.75-4.3,3.74a1,1,0,0,1-1-1V7.37A5.16,5.16,0,0,1,14.23,2.21Z"/><path d="M6.29,2.67A1.34,1.34,0,0,0,7.83,1.13,1.33,1.33,0,0,0,6.72,0,1.34,1.34,0,0,0,5.18,1.55,1.36,1.36,0,0,0,6.29,2.67Z"/><path d="M9.94,2.67A1.34,1.34,0,1,0,8.83,1.55,1.34,1.34,0,0,0,9.94,2.67Z"/></g></g></svg>