<svg xmlns="http://www.w3.org/2000/svg" viewBox="0 0 9.32 14.53"><defs><style>.cls-1{fill:none;stroke:#000;stroke-linecap:round;stroke-miterlimit:10;stroke-width:3.21px;}</style></defs><g id="Ebene_2" data-name="Ebene 2"><g id="Layer_1" data-name="Layer 1"><path d="M.68,9.11a1.5,1.5,0,0,1,1.78.41,2.78,2.78,0,0,0,2.09,1c.73,0,1.42-.12,1.42-.69s-.29-.64-1.09-.9L3.62,8.45C.3,7.33.32,5.77.32,4.75c0-1.64,2-3.16,4.3-3.16a4.4,4.4,0,0,1,4,1.83A1.17,1.17,0,0,1,8.32,5.1a1.76,1.76,0,0,1-2.11-.26,2.23,2.23,0,0,0-1.33-.5c-.71,0-1.21.24-1.21.67s.28.57,1,.78l1.68.57c2.68.88,3,2.61,3,3.32,0,2.35-2.47,3.47-4.8,3.47-1.78,0-3.87-.74-4.44-2.38A1.34,1.34,0,0,1,.68,9.11Z"/><line class="cls-1" x1="4.66" y1="2.51" x2="4.66" y2="1.61"/><line class="cls-1" x1="4.66" y1="12.92" x2="4.66" y2="12.17"/></g></g></svg>