<svg xmlns="http://www.w3.org/2000/svg" viewBox="0 0 17.81 11.46"><g id="Ebene_2" data-name="Ebene 2"><g id="Layer_1" data-name="Layer 1"><path d="M17.66,5A9.67,9.67,0,0,0,8.9,0,9.69,9.69,0,0,0,.14,5a1.27,1.27,0,0,0,0,1.17A9.91,9.91,0,0,0,8.9,11.46a9.89,9.89,0,0,0,8.76-5.27A1.22,1.22,0,0,0,17.66,5ZM8.9,9.36A8.2,8.2,0,0,1,2.84,6.21,1,1,0,0,1,2.84,5,9.26,9.26,0,0,1,5.45,2.94a.22.22,0,0,1,.29.29,3.43,3.43,0,0,0-.38,1.6,3.55,3.55,0,0,0,7.09,0,3.43,3.43,0,0,0-.38-1.6.22.22,0,0,1,.29-.29A9.26,9.26,0,0,1,15,5a1,1,0,0,1,0,1.22A8.21,8.21,0,0,1,8.9,9.36Z"/></g></g></svg>