<svg xmlns="http://www.w3.org/2000/svg" viewBox="0 0 12.93 16.82"><g id="Ebene_2" data-name="Ebene 2"><g id="Layer_1" data-name="Layer 1"><path d="M10.36,8.17v-6a1,1,0,0,0-.9-1,1,1,0,0,0-1,1V7.69c0,.14-.16.24-.3.24h0c-.13,0-.29-.1-.29-.24V1.05a1,1,0,0,0-.9-1,1,1,0,0,0-1,1V7.69c0,.14-.16.24-.29.24h0c-.14,0-.3-.1-.3-.24L5.4,2.25a1,1,0,0,0-.9-1,1,1,0,0,0-1.08,1l-.08,9.45v.1L1.87,9.68A1,1,0,0,0,.49,9.36a1,1,0,0,0-.3,1.46l3,4.22,0,.06c1.27,1.83,3.65,1.72,4.93,1.72,3.75,0,4.81-2.14,4.81-4.79h0V3.75a1,1,0,0,0-.95-1,1,1,0,0,0-1,1V8.17c0,.13-.17.24-.3.24h0C10.52,8.41,10.36,8.3,10.36,8.17Z"/></g></g></svg>