<svg xmlns="http://www.w3.org/2000/svg" viewBox="0 0 12.6 14.84"><defs><style>.cls-1{fill:none;stroke:#000;stroke-linecap:round;stroke-linejoin:round;stroke-width:1.8px;}</style></defs><g id="Ebene_2" data-name="Ebene 2"><g id="Layer_1" data-name="Layer 1"><path class="cls-1" d="M9.9,9a1.59,1.59,0,0,0,0,2.45h0a1.59,1.59,0,0,1,0,2.45"/><path class="cls-1" d="M6.36,9a1.6,1.6,0,0,0,0,2.45h0a1.59,1.59,0,0,1,0,2.45"/><path class="cls-1" d="M2.82,9a1.6,1.6,0,0,0,0,2.45h0a1.59,1.59,0,0,1,0,2.45"/><path d="M5.2,0H7.4a5.2,5.2,0,0,1,5.2,5.2V6.38a1.12,1.12,0,0,1-1.12,1.12H1.12A1.12,1.12,0,0,1,0,6.38V5.2A5.2,5.2,0,0,1,5.2,0Z"/></g></g></svg>