<svg xmlns="http://www.w3.org/2000/svg" viewBox="0 0 14.86 16.29"><g id="Ebene_2" data-name="Ebene 2"><g id="Layer_1" data-name="Layer 1"><path d="M6.68,1a4.18,4.18,0,0,0-.81,5.41,1,1,0,0,1-.13,1.21L.35,13a1.15,1.15,0,0,0-.12,1.51,1.09,1.09,0,0,0,1.62.08l1.52,1.52a.75.75,0,0,0,1.07,0L4.52,16a.92.92,0,0,0,.16-.94A1.44,1.44,0,0,1,5,13.5a1.43,1.43,0,0,1,1.55-.31,1,1,0,0,0,1-.16L7.57,13a.77.77,0,0,0,0-1.07L6.05,10.36,7.28,9.13A1,1,0,0,1,8.49,9a4.17,4.17,0,0,0,5.41-.81,4.24,4.24,0,0,0-.33-5.74L12.42,1.29A4.26,4.26,0,0,0,6.68,1Zm5.45,3.12A2,2,0,0,1,12,7a2,2,0,0,1-2.71-.19L8,5.59a2,2,0,0,1-.19-2.71,2,2,0,0,1,2.93-.15Z"/></g></g></svg>