<svg xmlns="http://www.w3.org/2000/svg" viewBox="0 0 11.1 15.76"><defs><style>.cls-1{fill:none;stroke:#000;stroke-linecap:round;stroke-linejoin:round;stroke-width:1.75px;}.cls-2{fill:#fff;}</style></defs><g id="Ebene_2" data-name="Ebene 2"><g id="Layer_1" data-name="Layer 1"><line class="cls-1" x1="4.06" y1="14.89" x2="7.04" y2="14.89"/><path d="M4.91,0A5.54,5.54,0,0,0,1.67,9.51,3.52,3.52,0,0,1,2.72,12,1.29,1.29,0,0,0,4,13.22H7.1A1.3,1.3,0,0,0,8.37,12v0a3.52,3.52,0,0,1,1-2.42A5.54,5.54,0,0,0,4.91,0Z"/><path class="cls-2" d="M8.13,8.5a.6.6,0,0,1-.86,0,.41.41,0,0,0-.58,0,1.59,1.59,0,0,1-2.28,0,.43.43,0,0,0-.58,0A.6.6,0,0,1,3,8.5a.59.59,0,0,1,0-.85,1.63,1.63,0,0,1,2.29,0,.41.41,0,0,0,.58,0,1.63,1.63,0,0,1,2.29,0A.59.59,0,0,1,8.13,8.5Z"/><path class="cls-2" d="M5.55,9.09a1.69,1.69,0,0,1-1.22-.51.32.32,0,0,0-.43,0,.72.72,0,0,1-1.22-.5.75.75,0,0,1,.21-.51,1.73,1.73,0,0,1,2.45,0,.29.29,0,0,0,.21.09h0a.29.29,0,0,0,.21-.09,1.73,1.73,0,0,1,2.45,0,.75.75,0,0,1,.21.51.71.71,0,0,1-.21.5h0a.71.71,0,0,1-1,0A.35.35,0,0,0,7,8.5H7a.32.32,0,0,0-.21.08A1.69,1.69,0,0,1,5.55,9.09ZM4.12,8.28a.51.51,0,0,1,.36.15,1.52,1.52,0,0,0,2.14,0A.48.48,0,0,1,7,8.27H7a.51.51,0,0,1,.37.16.5.5,0,0,0,.7,0,.52.52,0,0,0,.14-.35.5.5,0,0,0-.14-.35,1.51,1.51,0,0,0-2.13,0,.51.51,0,0,1-.37.15h0a.51.51,0,0,1-.37-.15,1.51,1.51,0,0,0-2.13,0,.49.49,0,0,0,.7.7A.51.51,0,0,1,4.12,8.28Z"/></g></g></svg>