<svg xmlns="http://www.w3.org/2000/svg" viewBox="0 0 11.68 13"><g id="Ebene_2" data-name="Ebene 2"><g id="Layer_1" data-name="Layer 1"><path d="M11.47,3.25h0a1.56,1.56,0,0,0-2.13-.57L7.4,3.8V1.56A1.56,1.56,0,0,0,5.84,0h0A1.56,1.56,0,0,0,4.28,1.56V3.8L2.34,2.68a1.56,1.56,0,0,0-2.13.57h0A1.55,1.55,0,0,0,.78,5.38L2.72,6.5.78,7.62A1.55,1.55,0,0,0,.21,9.75h0a1.56,1.56,0,0,0,2.13.57L4.28,9.21v2.23A1.56,1.56,0,0,0,5.84,13h0A1.56,1.56,0,0,0,7.4,11.44V9.21l1.94,1.11a1.56,1.56,0,0,0,2.13-.57h0a1.56,1.56,0,0,0-.57-2.13L9,6.5,10.9,5.38A1.56,1.56,0,0,0,11.47,3.25Z"/></g></g></svg>