<svg xmlns="http://www.w3.org/2000/svg" viewBox="0 0 16.01 15.8"><g id="Ebene_2" data-name="Ebene 2"><g id="Layer_1" data-name="Layer 1"><path d="M15.35,5.91l-2.08-.84.31-2.23A1,1,0,0,0,12.22,1.7l-2.14.69L8.89.49a1,1,0,0,0-1.77,0l-1.2,1.9L3.78,1.7A1,1,0,0,0,2.43,2.84l.3,2.23L.65,5.91A1.05,1.05,0,0,0,.34,7.66L2,9.17l-1,2a1.05,1.05,0,0,0,.89,1.54l2.24.08L4.56,15a1,1,0,0,0,1.67.6L8,14.19l1.78,1.38a1,1,0,0,0,1.66-.6l.47-2.2,2.25-.08a1.05,1.05,0,0,0,.89-1.54L14,9.17l1.66-1.51A1,1,0,0,0,15.35,5.91ZM8,12.46a4.25,4.25,0,1,1,4.25-4.25A4.26,4.26,0,0,1,8,12.46Z"/></g></g></svg>