<svg xmlns="http://www.w3.org/2000/svg" viewBox="0 0 11.11 15.5"><g id="Ebene_2" data-name="Ebene 2"><g id="Layer_1" data-name="Layer 1"><path d="M10.23,6.14a1.37,1.37,0,0,0-1-.47H1.91A1.4,1.4,0,0,0,.53,7.24l.88,7A1.39,1.39,0,0,0,2.79,15.5H8.32A1.39,1.39,0,0,0,9.7,14.28l.87-7A1.38,1.38,0,0,0,10.23,6.14ZM4.81,13.07a.91.91,0,0,1-1.81,0V7.87a.91.91,0,0,1,1.81,0Zm3.29,0a.9.9,0,0,1-1.8,0V7.87a.9.9,0,0,1,1.8,0Z"/><path d="M9.87,2.21H7.71a.77.77,0,0,1-.78-.77h0A1.41,1.41,0,0,0,5.69,0,1.37,1.37,0,0,0,4.18,1.38v.06a.77.77,0,0,1-.78.77H1.24A1.22,1.22,0,0,0,0,3.29a1.18,1.18,0,0,0,1.18,1.3H9.92a1.18,1.18,0,0,0,1.18-1.3A1.23,1.23,0,0,0,9.87,2.21Z"/></g></g></svg>