<svg xmlns="http://www.w3.org/2000/svg" viewBox="0 0 15.17 13.96"><g id="Ebene_2" data-name="Ebene 2"><g id="Layer_1" data-name="Layer 1"><path d="M7.9,0H5.32a1,1,0,0,0-1,1v.67a.47.47,0,0,1-.47.47H.5a.5.5,0,0,0-.16,1L3.41,4.2a1.33,1.33,0,0,1,.88,1.25V8.92a.91.91,0,0,0,.91.91H6.44A.93.93,0,0,0,7.34,9a.86.86,0,0,1,1-.75A.89.89,0,0,1,9,9.16a1.59,1.59,0,0,1-.45,1L6.34,12.38A.93.93,0,0,0,7,14h6.87a1.32,1.32,0,0,0,1.31-1.32V7.27A7.27,7.27,0,0,0,7.9,0Zm-1,6.26A1.12,1.12,0,0,1,5.61,4.94a1.12,1.12,0,0,1,2.2.44A1.12,1.12,0,0,1,6.93,6.26Z"/></g></g></svg>