<svg xmlns="http://www.w3.org/2000/svg" viewBox="0 0 21.29 10.16"><defs><style>.cls-1{fill:#fff;}</style></defs><g id="Ebene_2" data-name="Ebene 2"><g id="Layer_1" data-name="Layer 1"><path d="M19.86,4h-.33a.28.28,0,0,1-.18-.49,1.05,1.05,0,0,0,.41-1,1.14,1.14,0,0,0-1.9-.7L16.61,3a.15.15,0,0,1-.25-.08A3.25,3.25,0,0,0,13.13,0H7.79A3.25,3.25,0,0,0,4.56,2.92.14.14,0,0,1,4.32,3L3.06,1.82a1.14,1.14,0,0,0-1.9.7,1.05,1.05,0,0,0,.41,1A.28.28,0,0,1,1.39,4H1.18A1.18,1.18,0,0,0,0,5,1.13,1.13,0,0,0,1.12,6.2h.27a.28.28,0,0,1,.19.48h0a1.16,1.16,0,0,0-.22,1.44,1.11,1.11,0,0,0,.95.53,1.07,1.07,0,0,0,.76-.31L4.32,7.16a.14.14,0,0,1,.24.09,3.24,3.24,0,0,0,3.23,2.91h5.34a3.24,3.24,0,0,0,3.23-2.91.15.15,0,0,1,.25-.09l1.25,1.18a1.09,1.09,0,0,0,.76.31,1.11,1.11,0,0,0,.95-.53,1.15,1.15,0,0,0-.22-1.44h0a.28.28,0,0,1,.19-.48h.28c.83,0,2.05-.92,1.17-1.8A1.59,1.59,0,0,0,19.86,4Z"/><ellipse class="cls-1" cx="10.64" cy="5.08" rx="2.87" ry="2.28"/></g></g></svg>