<svg xmlns="http://www.w3.org/2000/svg" viewBox="0 0 14.24 15.45"><defs><style>.cls-1{fill:none;}.cls-1,.cls-2{stroke:#000;stroke-linecap:round;stroke-linejoin:round;stroke-width:1.85px;}</style></defs><g id="Ebene_2" data-name="Ebene 2"><g id="Layer_1" data-name="Layer 1"><path class="cls-1" d="M7.12,7.73h0l-2,3.4a2.27,2.27,0,0,1-3.93,0h0a2.27,2.27,0,0,1,2-3.4Z"/><path class="cls-1" d="M7.12,14.53h0a2.27,2.27,0,0,1-2-3.4l2-3.4,2,3.4A2.26,2.26,0,0,1,7.12,14.53Z"/><path class="cls-1" d="M13,11.13h0a2.27,2.27,0,0,1-3.93,0l-2-3.4h3.93A2.27,2.27,0,0,1,13,11.13Z"/><path class="cls-1" d="M11.05,7.73H7.12l2-3.41a2.26,2.26,0,0,1,3.92,0h0A2.27,2.27,0,0,1,11.05,7.73Z"/><path class="cls-1" d="M9.08,4.33l-2,3.4-2-3.4a2.27,2.27,0,0,1,2-3.4h0A2.26,2.26,0,0,1,9.08,4.33Z"/><path class="cls-1" d="M7.12,7.73H3.2a2.27,2.27,0,0,1-2-3.41h0a2.27,2.27,0,0,1,3.93,0Z"/><circle class="cls-2" cx="7.12" cy="7.73" r="1.28"/></g></g></svg>