<svg xmlns="http://www.w3.org/2000/svg" viewBox="0 0 56.9 13.38"><g id="Ebene_2" data-name="Ebene 2"><g id="Layer_1" data-name="Layer 1"><path d="M55.76.56A1.46,1.46,0,0,0,54,1.66L52.77,7.11a1.47,1.47,0,1,0,2.86.65l1.24-5.45A1.46,1.46,0,0,0,55.76.56ZM53.63,10a1.59,1.59,0,1,0,1.2,1.9A1.59,1.59,0,0,0,53.63,10Z"/><path d="M21.63,3.17h0a1.4,1.4,0,0,0-1.67-1l-.55.14A.32.32,0,0,1,19,2.05l-.13-.56a1.4,1.4,0,0,0-1.67-1h0a1.39,1.39,0,0,0-1,1.67l.13.55a.3.3,0,0,1-.23.37l-1.33.32a.32.32,0,0,1-.37-.23l-.13-.56a1.37,1.37,0,0,0-1.66-1h0a1.39,1.39,0,0,0-1,1.66l.13.56a.29.29,0,0,1-.22.36L11,4.28a1.39,1.39,0,0,0-1,1.66h0a1.4,1.4,0,0,0,1.67,1l.55-.13a.3.3,0,0,1,.37.22l.32,1.33a.32.32,0,0,1-.23.37L12,8.89a1.4,1.4,0,0,0-1,1.67h0a1.39,1.39,0,0,0,1.67,1l.55-.13a.3.3,0,0,1,.37.23l.13.56a1.38,1.38,0,0,0,1.67,1h0a1.39,1.39,0,0,0,1-1.66L16.29,11a.32.32,0,0,1,.23-.37l1.33-.31a.3.3,0,0,1,.37.23l.13.55a1.38,1.38,0,0,0,1.66,1h0a1.38,1.38,0,0,0,1-1.66L20.91,10a.31.31,0,0,1,.23-.37l.55-.13a1.38,1.38,0,0,0,1-1.66h0a1.38,1.38,0,0,0-1.66-1l-.56.13a.31.31,0,0,1-.37-.23l-.31-1.33A.29.29,0,0,1,20,5l.56-.14A1.39,1.39,0,0,0,21.63,3.17ZM17.15,7.68,16,8a.38.38,0,0,1-.45-.28l-.28-1.2A.37.37,0,0,1,15.49,6l1.21-.28a.36.36,0,0,1,.44.27l.29,1.21A.37.37,0,0,1,17.15,7.68Z"/><path d="M32.43,12.82a6,6,0,0,1-6.69-1.67,5.5,5.5,0,0,1-1.36-4.06,5.1,5.1,0,0,1,1.86-3.6A4.73,4.73,0,0,1,32,3.25,3.57,3.57,0,0,1,33.33,6,3.53,3.53,0,0,1,32,8.85a3.29,3.29,0,0,1-2.2.75,1.28,1.28,0,0,1-1.22-1.31,1.26,1.26,0,0,1,1.3-1.22.78.78,0,0,0,.49-.16,1,1,0,0,0,.39-.84,1.07,1.07,0,0,0-.36-.81,2.2,2.2,0,0,0-2.59.18,2.66,2.66,0,0,0-1,1.85,3,3,0,0,0,.74,2.18,3.62,3.62,0,0,0,5.3.12,4.65,4.65,0,0,0,1.57-3.91,4.25,4.25,0,0,0-2.33-3.31A1.27,1.27,0,0,1,31.71.64,1.25,1.25,0,0,1,33.43.17,6.76,6.76,0,0,1,37,5.41a7.23,7.23,0,0,1-2.4,6.08A7.08,7.08,0,0,1,32.43,12.82Z"/><path d="M49.38,9.18a3,3,0,0,0-3.28-1.7A.09.09,0,0,1,46,7.31l3.83-2.53A1.36,1.36,0,0,0,50.33,3a1.31,1.31,0,0,0-1.85-.43L44.6,5.12A.1.1,0,0,1,44.47,5a2.94,2.94,0,0,0,.44-1.06,3,3,0,0,0-1.21-3,2.39,2.39,0,0,0-1-.44h0A3.08,3.08,0,0,0,40.59.7a3,3,0,0,0,.81,5.54,3,3,0,0,0,1.16,0,.09.09,0,0,1,.07.17L38.79,9a1.36,1.36,0,0,0-.39,1.91,1.31,1.31,0,0,0,1.77.31l3.89-2.56a.09.09,0,0,1,.13.13,3,3,0,0,0,1.88,4.58,3,3,0,0,0,3.31-4.14Zm-6.9-5.11a.89.89,0,1,1-.31-1.61h0a.89.89,0,0,1,.69,1A.88.88,0,0,1,42.48,4.07Zm4.57,7.13a.89.89,0,0,1-1.26-1,.92.92,0,0,1,.38-.56,1,1,0,0,1,.67-.13.91.91,0,0,1,.56.38A.89.89,0,0,1,47.05,11.2Z"/><path d="M8.7,8.06c-.15-.6-.8-2-3.25-2.17L3.9,5.77c-.6,0-.89-.16-1-.46s.28-.67.88-.82A1.86,1.86,0,0,1,5,4.63,1.54,1.54,0,0,0,6.88,4.4a1,1,0,0,0-.11-1.48A3.09,3.09,0,0,0,4.64,2a.17.17,0,0,1-.17-.13h0A1.47,1.47,0,0,0,2.77.8,1.46,1.46,0,0,0,1.64,2.58h0a.29.29,0,0,1-.12.31A3,3,0,0,0,.05,5.8C.27,6.66.58,8,3.62,8.22l1.16.12c.74.05,1,.13,1.12.53s-.44.72-1.06.88a2.41,2.41,0,0,1-2-.38,1.31,1.31,0,0,0-1.59,0,1.15,1.15,0,0,0-.15,1.53,3.23,3.23,0,0,0,2.73,1.23.31.31,0,0,1,.26.18,1.45,1.45,0,0,0,2.77-.74A.31.31,0,0,1,7,11.32H7A3,3,0,0,0,8.7,8.06Z"/></g></g></svg>