<svg xmlns="http://www.w3.org/2000/svg" viewBox="0 0 14.08 14.08"><defs><style>.cls-1{fill:none;stroke:#000;stroke-linecap:round;stroke-linejoin:round;stroke-width:1.97px;}</style></defs><g id="Ebene_2" data-name="Ebene 2"><g id="Layer_1" data-name="Layer 1"><path class="cls-1" d="M2,12.06H2a3.54,3.54,0,0,1,0-5L4.54,4.54,7.06,2a3.54,3.54,0,0,1,5,0h0a3.54,3.54,0,0,1,0,5L9.54,9.54,7,12.06A3.54,3.54,0,0,1,2,12.06Z"/><path d="M4.54,4.54,2,7.06a3.54,3.54,0,0,0,0,5H2a3.54,3.54,0,0,0,5,0L9.54,9.54Z"/></g></g></svg>