<svg xmlns="http://www.w3.org/2000/svg" viewBox="0 0 15.91 13.46"><defs><style>.cls-1{fill:none;stroke:#000;stroke-linecap:round;stroke-miterlimit:10;stroke-width:1.98px;}</style></defs><g id="Ebene_2" data-name="Ebene 2"><g id="Layer_1" data-name="Layer 1"><polyline class="cls-1" points="11.04 0.99 7.95 3.63 4.86 0.99"/><path d="M14.75,3.37H1.16A1.16,1.16,0,0,0,0,4.53V12.3a1.16,1.16,0,0,0,1.16,1.16H14.75a1.16,1.16,0,0,0,1.16-1.16V4.53A1.16,1.16,0,0,0,14.75,3.37ZM11.58,9.88A1.54,1.54,0,0,1,10,11.42H3.66A1.55,1.55,0,0,1,2.11,9.88V7A1.55,1.55,0,0,1,3.66,5.41H10A1.54,1.54,0,0,1,11.58,7Zm2.09,0A.88.88,0,1,1,14.54,9,.87.87,0,0,1,13.67,9.86Zm0-2.26a.88.88,0,1,1,.87-.87A.87.87,0,0,1,13.67,7.6Z"/></g></g></svg>