<svg xmlns="http://www.w3.org/2000/svg" viewBox="0 0 11.76 12.68"><g id="Ebene_2" data-name="Ebene 2"><g id="Layer_1" data-name="Layer 1"><path d="M10.5,12.29a1.34,1.34,0,0,1-1.89,0L2.5,6.18a3.58,3.58,0,0,1-1-2.79A3.66,3.66,0,0,1,5.19,0,4,4,0,0,1,9.08,4v.63A1.34,1.34,0,0,1,7.75,6h0A1.34,1.34,0,0,1,6.41,4.65V4.32A1.75,1.75,0,0,0,5.87,3a1,1,0,0,0-1.73.84.94.94,0,0,0,.26.45l6.1,6.1a1.33,1.33,0,0,1,0,1.88Z"/><path d="M4.39,12.68A4.41,4.41,0,0,1,0,8.24V7.87A1.34,1.34,0,0,1,1.33,6.54h0A1.34,1.34,0,0,1,2.67,7.87v.44A1.67,1.67,0,0,0,4.28,10a1.61,1.61,0,0,0,1.19-.48l4-4a1.34,1.34,0,0,1,1.89,0h0a1.34,1.34,0,0,1,0,1.89l-4,4A4.32,4.32,0,0,1,4.39,12.68Z"/></g></g></svg>