<svg xmlns="http://www.w3.org/2000/svg" viewBox="0 0 13.02 15.04"><g id="Ebene_2" data-name="Ebene 2"><g id="Layer_1" data-name="Layer 1"><path d="M7.92,8c0,1.13,0,2.78,0,3.66A.39.39,0,0,0,8.5,12a4.07,4.07,0,0,0,1.79-2.12,1.41,1.41,0,1,1,2.65.94A6.58,6.58,0,0,1,6.51,15,6.59,6.59,0,0,1,.08,10.82a1.41,1.41,0,1,1,2.66-.94A4,4,0,0,0,4.53,12a.39.39,0,0,0,.58-.34V7.43a.64.64,0,0,0-.64-.63H2.84a1.41,1.41,0,0,1-1.4-1.55A1.45,1.45,0,0,1,2.9,4H5.59A2.1,2.1,0,0,1,4.43,1.81,2.13,2.13,0,0,1,6.26,0,2.11,2.11,0,0,1,8.61,2.1,2.08,2.08,0,0,1,7.43,4h2.76a1.41,1.41,0,0,1,1.4,1.55A1.45,1.45,0,0,1,10.13,6.8H8.56a.64.64,0,0,0-.64.63Z"/></g></g></svg>