<svg xmlns="http://www.w3.org/2000/svg" viewBox="0 0 12.48 15.33"><g id="Ebene_2" data-name="Ebene 2"><g id="Layer_1" data-name="Layer 1"><path d="M2.15,4.3A2.15,2.15,0,1,1,4.3,2.15,2.15,2.15,0,0,1,2.15,4.3Z"/><path d="M2.12,9.64a2.15,2.15,0,0,0-.58,4.21,2.26,2.26,0,0,1,1.17.87l.21.29a.76.76,0,0,0,1.38-.44V11.79A2.15,2.15,0,0,0,2.12,9.64Z"/><path d="M10.33,4.3a2.15,2.15,0,1,1,2.15-2.15A2.16,2.16,0,0,1,10.33,4.3Z"/><path d="M10.33,13.93a2.15,2.15,0,1,1,2.15-2.14A2.15,2.15,0,0,1,10.33,13.93Z"/></g></g></svg>