<svg xmlns="http://www.w3.org/2000/svg" viewBox="0 0 19.8 12.24"><g id="Ebene_2" data-name="Ebene 2"><g id="Layer_1" data-name="Layer 1"><path d="M12,2.12A2.12,2.12,0,0,0,9.44.05a2.09,2.09,0,0,0-1.61,1.6,2.12,2.12,0,0,0,.36,1.72,2.62,2.62,0,0,1,.55,1.56v6.15A1.16,1.16,0,0,0,9.9,12.24h0a1.16,1.16,0,0,0,1.16-1.16v-6a3.09,3.09,0,0,1,.58-1.73A2.09,2.09,0,0,0,12,2.12Z"/><path d="M12.53,3.92,17.1,1.34a1.81,1.81,0,0,1,1.78,3.15,1.68,1.68,0,0,1-.64.22l-5.19.74a.82.82,0,0,1-.52-1.53Z"/><path d="M13,6.15l3.34.11A1.86,1.86,0,1,1,16.18,10a1.88,1.88,0,0,1-1-.34l-2.72-2a.85.85,0,0,1-.19-1.18A.83.83,0,0,1,13,6.15Z"/><path d="M6.75,5.45,1.56,4.71a1.81,1.81,0,1,1,.5-3.58,1.93,1.93,0,0,1,.64.21L7.27,3.92A.83.83,0,0,1,7.58,5,.84.84,0,0,1,6.75,5.45Z"/><path d="M7.36,7.68l-2.72,2a1.86,1.86,0,0,1-2.17-3,1.8,1.8,0,0,1,1-.35l3.34-.11A.85.85,0,0,1,7.71,7,.89.89,0,0,1,7.36,7.68Z"/></g></g></svg>