<svg xmlns="http://www.w3.org/2000/svg" viewBox="0 0 17.97 9.22"><g id="Ebene_2" data-name="Ebene 2"><g id="Layer_1" data-name="Layer 1"><rect y="0.8" width="7.77" height="3.01" rx="1.5"/><rect y="5.44" width="7.77" height="3.01" rx="1.5"/><path d="M16.47,3.11h-1.6V1.5A1.51,1.51,0,0,0,13.36,0h0a1.5,1.5,0,0,0-1.5,1.5V3.11h-1.6a1.51,1.51,0,0,0-1.51,1.5h0a1.51,1.51,0,0,0,1.51,1.5h1.6V7.72a1.5,1.5,0,0,0,1.5,1.5h0a1.51,1.51,0,0,0,1.51-1.5V6.11h1.6A1.5,1.5,0,0,0,18,4.61h0A1.5,1.5,0,0,0,16.47,3.11Z"/></g></g></svg>