<svg xmlns="http://www.w3.org/2000/svg" viewBox="0 0 12.92 12.92"><g id="Ebene_2" data-name="Ebene 2"><g id="Layer_1" data-name="Layer 1"><path d="M12.92,3.93h0a1.48,1.48,0,0,0-1.48-1.48H10.5V1.5A1.49,1.49,0,0,0,9,0H9A1.49,1.49,0,0,0,7.53,1.49v.94H5.41V1.49A1.49,1.49,0,0,0,3.93,0h0A1.48,1.48,0,0,0,2.45,1.48v.94H1.5A1.49,1.49,0,0,0,0,3.9H0A1.48,1.48,0,0,0,1.49,5.38h.94V7.51H1.49A1.47,1.47,0,0,0,0,9H0a1.49,1.49,0,0,0,1.48,1.49h.94v.94A1.48,1.48,0,0,0,3.9,12.9h0a1.48,1.48,0,0,0,1.48-1.48v-.94H7.51v.94A1.48,1.48,0,0,0,9,12.92H9a1.49,1.49,0,0,0,1.49-1.48V10.5h.94A1.49,1.49,0,0,0,12.9,9h0a1.49,1.49,0,0,0-1.48-1.49h-.94V5.41h.94A1.49,1.49,0,0,0,12.92,3.93ZM7.52,7.52H5.39V5.39H7.52Z"/></g></g></svg>