<svg xmlns="http://www.w3.org/2000/svg" viewBox="0 0 10.11 17.09"><g id="Ebene_2" data-name="Ebene 2"><g id="Layer_1" data-name="Layer 1"><path d="M8.23,9.22H7.85a.49.49,0,0,0-.49.41h0a1.74,1.74,0,0,1-3.42,0h0a.5.5,0,0,0-.49-.42H1.88a.6.6,0,0,0-.56.83L4,16.39a1.13,1.13,0,0,0,2.09,0l2.69-6.34A.61.61,0,0,0,8.23,9.22Z"/><path d="M9.42,5a.41.41,0,0,1-.18-.38,3.73,3.73,0,0,0,0-1A4.32,4.32,0,0,0,5.24,0,4.21,4.21,0,0,0,.85,4.21a2.11,2.11,0,0,0,0,.36A.41.41,0,0,1,.69,5,1.53,1.53,0,0,0,0,6.46,1.56,1.56,0,0,0,1.58,7.78H3.81a1,1,0,0,1,1,1v.13h0V9a.84.84,0,0,0,.23.57,1,1,0,0,0,.3.19.81.81,0,0,0,.56,0A.82.82,0,0,0,6.47,9V8.81a1,1,0,0,1,1-1h1A1.57,1.57,0,0,0,10.1,6.41,1.55,1.55,0,0,0,9.42,5Z"/></g></g></svg>