<svg xmlns="http://www.w3.org/2000/svg" viewBox="0 0 16.98 12.23"><g id="Ebene_2" data-name="Ebene 2"><g id="Layer_1" data-name="Layer 1"><path d="M4,12.23A.92.92,0,0,1,3,11.31V4.16a.92.92,0,1,1,1.84,0v7.15A.92.92,0,0,1,4,12.23Z"/><path d="M6.7,12.23a.92.92,0,0,1-.92-.92V4.16a.92.92,0,1,1,1.84,0v7.15A.92.92,0,0,1,6.7,12.23Z"/><path d="M9.45,12.23a.93.93,0,0,1-.93-.92V4.16a.93.93,0,1,1,1.85,0v7.15A.92.92,0,0,1,9.45,12.23Z"/><path d="M15.72,4.39,11.6,4.3a.48.48,0,0,0-.49.48V6a.5.5,0,0,0,.43.49l4.07.41h.1A1.24,1.24,0,0,0,17,5.41,1.27,1.27,0,0,0,15.72,4.39Z"/><path d="M2.3,4.45A.37.37,0,0,0,2,4.08l-1.29,0A.66.66,0,0,0,0,4.76a.67.67,0,0,0,.61.58l1.29.13a.36.36,0,0,0,.4-.36Z"/><path d="M.58,1.53,15.61,0A1.23,1.23,0,0,1,17,1.12a1.22,1.22,0,0,1-1.11,1.35h-.09L.66,2.81A.64.64,0,0,1,.58,1.53Z"/></g></g></svg>