<svg xmlns="http://www.w3.org/2000/svg" viewBox="0 0 14.17 13.46"><g id="Ebene_2" data-name="Ebene 2"><g id="Layer_1" data-name="Layer 1"><circle cx="4.24" cy="7.55" r="1.45"/><circle cx="9.93" cy="7.55" r="1.45"/><path d="M6.87,10.57,6.6,10a1.1,1.1,0,0,1,0-.94l.27-.53a.22.22,0,0,1,.4,0l.26.53a1,1,0,0,1,0,.94l-.26.54A.23.23,0,0,1,6.87,10.57Z"/><path d="M13.83.56a.88.88,0,0,0-.77-.15L11.6.82A2.25,2.25,0,0,1,10.07.67a7,7,0,0,0-6,0A2.25,2.25,0,0,1,2.57.82L1.11.41A.86.86,0,0,0,.35.56.86.86,0,0,0,0,1.25V7.09c0,3.75,2.91,6.37,7.09,6.37s7.08-2.62,7.08-6.37V1.25A.88.88,0,0,0,13.83.56ZM7.09,11.71c-2.66,0-5.34-1.43-5.34-4.62A5.45,5.45,0,0,1,2.18,5a2.36,2.36,0,0,1,2-1.24A2.5,2.5,0,0,1,6.3,4.84l.07.1,0,0,.06.07.07.06,0,0h0l.09,0,.07,0,.08,0,.08,0h.33l.09,0,.07,0,.07,0,.09,0h0l0,0,.07-.06s0,0,.06-.07l0,0,.07-.1A2.5,2.5,0,0,1,10,3.74,2.36,2.36,0,0,1,12,5a5.27,5.27,0,0,1,.43,2.11C12.42,10.28,9.74,11.71,7.09,11.71Z"/></g></g></svg>