<svg xmlns="http://www.w3.org/2000/svg" viewBox="0 0 12.42 12.44"><g id="Ebene_2" data-name="Ebene 2"><g id="Layer_1" data-name="Layer 1"><path d="M1.9,11.87a1.32,1.32,0,0,1-1-.4,1.36,1.36,0,0,1,0-1.92L9.56,1A1.36,1.36,0,1,1,11.47,2.9L2.86,11.48A1.35,1.35,0,0,1,1.9,11.87Z"/><path d="M3.1,6.2A3.1,3.1,0,1,1,3.1,0h0a3.1,3.1,0,0,1,0,6.2Zm0-4a.91.91,0,0,0-.65.26.92.92,0,1,0,1.3,1.31h0a.92.92,0,0,0,0-1.3.88.88,0,0,0-.65-.27Z"/><path d="M9.32,12.44a3.09,3.09,0,1,1,2.19-.9A3.09,3.09,0,0,1,9.32,12.44Zm0-4A.93.93,0,0,0,8.67,10a.92.92,0,1,0,.65-1.58Z"/></g></g></svg>