<svg xmlns="http://www.w3.org/2000/svg" viewBox="0 0 20.86 11.75"><g id="Ebene_2" data-name="Ebene 2"><g id="Layer_1" data-name="Layer 1"><path d="M20.39,3.46a1.07,1.07,0,0,0-1.2,0,1.06,1.06,0,0,0-.43.66,1.86,1.86,0,0,1-.92,1.19L14.82,7a.46.46,0,0,1-.68-.36L13.8,3.29a1.86,1.86,0,0,1,.47-1.5,1,1,0,0,0,.28-1,1.06,1.06,0,0,0-2.09.23,1.35,1.35,0,0,0,0,.29A2.32,2.32,0,0,1,12.45,3l-1.6,3.53a.47.47,0,0,1-.85,0L8.4,2.91a2.12,2.12,0,0,1-.05-1.55,1,1,0,0,0,0-.52,1.06,1.06,0,0,0-2.09.22,1.07,1.07,0,0,0,.28.71,1.83,1.83,0,0,1,.51,1.42L6.72,6.6A.47.47,0,0,1,6,7L3,5.32a1.89,1.89,0,0,1-.92-1.19,1,1,0,0,0-.42-.66,1.09,1.09,0,0,0-1.21,0A1.06,1.06,0,0,0,.31,5.08a1,1,0,0,0,.57.3A1.71,1.71,0,0,1,2,6l3.65,5.07A1.64,1.64,0,0,0,7,11.75h6.85a1.65,1.65,0,0,0,1.34-.68L18.84,6A1.71,1.71,0,0,1,20,5.38a1,1,0,0,0,.57-.3A1,1,0,0,0,20.39,3.46Z"/></g></g></svg>