<svg xmlns="http://www.w3.org/2000/svg" viewBox="0 0 15 5.69"><g id="Ebene_2" data-name="Ebene 2"><g id="Layer_1" data-name="Layer 1"><path d="M2.12,0A2.19,2.19,0,0,0,0,2.12,2.15,2.15,0,0,0,1.54,4.21a2.23,2.23,0,0,1,1.17.88l.21.28A.76.76,0,0,0,4.3,4.93V2.15A2.15,2.15,0,0,0,2.12,0Z"/><path d="M9.2,0A2.19,2.19,0,0,0,7.08,2.12,2.15,2.15,0,0,0,8.62,4.21a2.23,2.23,0,0,1,1.17.88l.21.28a.76.76,0,0,0,1.38-.44V2.15A2.15,2.15,0,0,0,9.2,0Z"/><path d="M12.82,0A2.19,2.19,0,0,0,10.7,2.12a2.15,2.15,0,0,0,1.55,2.09,2.23,2.23,0,0,1,1.17.88l.2.28A.76.76,0,0,0,15,4.93V2.15A2.15,2.15,0,0,0,12.82,0Z"/></g></g></svg>