<svg xmlns="http://www.w3.org/2000/svg" viewBox="0 0 14.65 14.71"><g id="Ebene_2" data-name="Ebene 2"><g id="Layer_1" data-name="Layer 1"><path d="M3.89,10.76A3.54,3.54,0,0,1,2.92,9a.5.5,0,0,0-.68-.36,2.44,2.44,0,0,0-.59.42c-.7.7-.57,2.59-.45,3.59a.89.89,0,0,0,.75.76c1,.12,2.9.24,3.6-.45A2.65,2.65,0,0,0,6,12.41a.51.51,0,0,0-.36-.69A3.6,3.6,0,0,1,3.89,10.76Z"/><path d="M11.89,0a8.42,8.42,0,0,0-5.7,2.46,7.76,7.76,0,0,0-.55.61,1.73,1.73,0,0,1-1.14.6,7,7,0,0,0-1.08.24A5.53,5.53,0,0,0,0,7a.6.6,0,0,0,.8.75A9.66,9.66,0,0,1,2,7.27a9.43,9.43,0,0,1,1.44-.35.34.34,0,0,1,.38.38,8.59,8.59,0,0,0-.08,1,2.59,2.59,0,0,0,.08.63h0A3.39,3.39,0,0,0,4,9.39H4a2.24,2.24,0,0,0,.22.4l0,0a2.3,2.3,0,0,0,.28.34h0a2.3,2.3,0,0,0,.34.28l0,0a3,3,0,0,0,.39.22h0a3.26,3.26,0,0,0,.44.15h0a2.41,2.41,0,0,0,.48.07h.15a7.85,7.85,0,0,0,1.08-.08.34.34,0,0,1,.38.37,10.16,10.16,0,0,1-.36,1.52A9.66,9.66,0,0,1,7,13.87a.6.6,0,0,0,.75.8,5.53,5.53,0,0,0,3.06-3.38,6.56,6.56,0,0,0,.25-1.15,1.83,1.83,0,0,1,.62-1.22,5.57,5.57,0,0,0,.51-.46,8.43,8.43,0,0,0,2.47-5.7A2.61,2.61,0,0,0,11.89,0Zm0,5.64a2,2,0,1,1,0-2.85A2,2,0,0,1,11.86,5.64Z"/></g></g></svg>