<svg xmlns="http://www.w3.org/2000/svg" viewBox="0 0 18.03 11.31"><g id="Ebene_2" data-name="Ebene 2"><g id="Layer_1" data-name="Layer 1"><path d="M7.38,2a2.1,2.1,0,0,1,2.1,2.1V6.49a.75.75,0,0,0,1.49,0V5.09a2.1,2.1,0,0,1,1.65-2,.42.42,0,0,0,.27-.46c-.05-.21-.21-.86-.39-1.54a1.34,1.34,0,0,0-1.24-1H6.78A1.32,1.32,0,0,0,5.54,1c0,.17-.09.34-.14.51a.42.42,0,0,0,.41.53Z"/><path d="M16.73,11.31H1.3A1.3,1.3,0,0,1,.42,9.05a18.65,18.65,0,0,0,3.92-5,1.36,1.36,0,0,1,1.21-.76H7.38a.8.8,0,0,1,.81.8V6.49a2,2,0,0,0,2.46,2,2.1,2.1,0,0,0,1.61-2.08V5.09a.8.8,0,0,1,.81-.8h.22a.88.88,0,0,1,.77.45A18.78,18.78,0,0,0,17.6,9,1.3,1.3,0,0,1,16.73,11.31Z"/></g></g></svg>