<svg xmlns="http://www.w3.org/2000/svg" viewBox="0 0 14.41 14.41"><g id="Ebene_2" data-name="Ebene 2"><g id="Layer_1" data-name="Layer 1"><path d="M5.2,7.21A1.32,1.32,0,1,0,6.52,8.53,1.32,1.32,0,0,0,5.2,7.21Z"/><path d="M9.24,7.1a1.32,1.32,0,1,0,1.32,1.32A1.32,1.32,0,0,0,9.24,7.1Z"/><path d="M12.26,0H2.15A2.15,2.15,0,0,0,0,2.15V12.26a2.15,2.15,0,0,0,2.15,2.15H12.26a2.15,2.15,0,0,0,2.15-2.15V2.15A2.15,2.15,0,0,0,12.26,0ZM11.6,8.71a1.32,1.32,0,0,0-.14.78s0,.09,0,.14a1.39,1.39,0,0,1-.94,1.3.57.57,0,0,0-.4.53A1.09,1.09,0,0,1,9,12.55a.46.46,0,0,1-.46-.46v-.3a.34.34,0,0,0-.34-.34.34.34,0,0,0-.34.34v.3a.46.46,0,0,1-.47.46H7a.45.45,0,0,1-.46-.46v-.3a.35.35,0,0,0-.69,0v.3a.45.45,0,0,1-.46.46h0a1.09,1.09,0,0,1-1.1-1.08.62.62,0,0,0-.42-.55A1.38,1.38,0,0,1,3,9.63V9.49a1.33,1.33,0,0,0-.14-.79,5.06,5.06,0,0,1-.55-2.85A5,5,0,1,1,11.6,8.71Z"/></g></g></svg>