<svg xmlns="http://www.w3.org/2000/svg" viewBox="0 0 15.88 15.9"><g id="Ebene_2" data-name="Ebene 2"><g id="Layer_1" data-name="Layer 1"><path d="M15.45,13.56l-2.81-2.82a.58.58,0,0,1-.1-.69,6.71,6.71,0,1,0-2.49,2.49.58.58,0,0,1,.69.1l2.87,2.87a1.33,1.33,0,0,0,1,.39,1.36,1.36,0,0,0,.9-.35A1.39,1.39,0,0,0,15.45,13.56Zm-8-2.5a4.41,4.41,0,1,1,3.6-3.6A4.42,4.42,0,0,1,7.46,11.06Z"/><path d="M8.7,5.66H8.12a.35.35,0,0,1-.35-.35V4.73a1.1,1.1,0,0,0-.85-1.08,1.06,1.06,0,0,0-1.26,1v.62a.35.35,0,0,1-.35.35H4.73a1.09,1.09,0,0,0-1.08.84,1.06,1.06,0,0,0,1,1.27h.62a.35.35,0,0,1,.35.35V8.7A1.07,1.07,0,0,0,6.5,9.77a1.06,1.06,0,0,0,1.27-1V8.12a.34.34,0,0,1,.35-.35h.62a1.06,1.06,0,0,0,1-1.27A1.07,1.07,0,0,0,8.7,5.66Z"/></g></g></svg>